<svg xmlns="http://www.w3.org/2000/svg" width="1600" height="900" viewBox="0 0 1600 900" role="img" aria-label="Presentacion markdown como proyecto publicado en GitHub Pages">
  <defs>
    <linearGradient id="g" x1="0" x2="1" y1="0" y2="1">
      <stop offset="0" stop-color="#17213f"/>
      <stop offset="1" stop-color="#070a13"/>
    </linearGradient>
    <filter id="s" x="-20%" y="-20%" width="140%" height="140%">
      <feDropShadow dx="0" dy="24" stdDeviation="22" flood-color="#000" flood-opacity="0.38"/>
    </filter>
  </defs>
  <rect width="1600" height="900" fill="#070a13"/>
  <circle cx="1220" cy="180" r="260" fill="#59d6ff" fill-opacity="0.12"/>
  <circle cx="360" cy="720" r="280" fill="#9bffb1" fill-opacity="0.08"/>
  <g filter="url(#s)">
    <rect x="230" y="210" width="430" height="470" rx="28" fill="url(#g)" stroke="#59d6ff" stroke-opacity="0.45" stroke-width="3"/>
    <rect x="276" y="274" width="300" height="34" rx="8" fill="#59d6ff" fill-opacity="0.28"/>
    <rect x="276" y="342" width="250" height="22" rx="6" fill="#aab7d4" fill-opacity="0.34"/>
    <rect x="276" y="386" width="310" height="22" rx="6" fill="#aab7d4" fill-opacity="0.28"/>
    <rect x="276" y="430" width="210" height="22" rx="6" fill="#aab7d4" fill-opacity="0.28"/>
    <text x="445" y="570" text-anchor="middle" fill="#eef4ff" font-family="Inter,Arial" font-size="78" font-weight="900">MD</text>
  </g>
  <g filter="url(#s)">
    <rect x="900" y="235" width="470" height="395" rx="30" fill="#111a33" stroke="#9bffb1" stroke-opacity="0.42" stroke-width="3"/>
    <rect x="940" y="280" width="390" height="58" rx="14" fill="#050914"/>
    <circle cx="970" cy="309" r="8" fill="#ff6b6b"/><circle cx="998" cy="309" r="8" fill="#ffd166"/><circle cx="1026" cy="309" r="8" fill="#9bffb1"/>
    <rect x="950" y="370" width="160" height="190" rx="16" fill="#17213f" stroke="#59d6ff" stroke-opacity="0.32"/>
    <rect x="1142" y="370" width="160" height="190" rx="16" fill="#17213f" stroke="#59d6ff" stroke-opacity="0.32"/>
    <text x="1135" y="606" text-anchor="middle" fill="#9bffb1" font-family="Inter,Arial" font-size="34" font-weight="800">GitHub Pages</text>
  </g>
  <path d="M680 445 C760 410 810 410 890 445" fill="none" stroke="#ffd166" stroke-width="8" stroke-linecap="round" stroke-opacity="0.75"/>
  <path d="M890 445 l-34 -18 l7 38 z" fill="#ffd166" fill-opacity="0.75"/>
</svg>
