<svg xmlns="http://www.w3.org/2000/svg" width="760" height="760" viewBox="0 0 760 760" role="img" aria-label="Tipos de UI y uso de OpenCode">
  <defs>
    <linearGradient id="panel" x1="0" x2="1" y1="0" y2="1">
      <stop offset="0" stop-color="#1c2a55"/>
      <stop offset="1" stop-color="#0b1020"/>
    </linearGradient>
    <filter id="shadow" x="-20%" y="-20%" width="140%" height="140%">
      <feDropShadow dx="0" dy="18" stdDeviation="18" flood-color="#000" flood-opacity="0.42"/>
    </filter>
  </defs>
  <rect width="760" height="760" rx="44" fill="#070a13"/>
  <circle cx="560" cy="165" r="230" fill="#59d6ff" fill-opacity="0.1"/>
  <circle cx="190" cy="610" r="240" fill="#9bffb1" fill-opacity="0.08"/>
  <g filter="url(#shadow)">
    <circle cx="380" cy="380" r="118" fill="url(#panel)" stroke="#59d6ff" stroke-opacity="0.72" stroke-width="4"/>
    <text x="380" y="370" text-anchor="middle" fill="#eef4ff" font-family="Inter,Arial" font-size="34" font-weight="900">OpenCode</text>
    <text x="380" y="408" text-anchor="middle" fill="#aab7d4" font-family="Inter,Arial" font-size="19">QRGen workflow</text>
  </g>
  <g filter="url(#shadow)" font-family="Inter,Arial" text-anchor="middle">
    <rect x="86" y="100" width="180" height="82" rx="22" fill="#111a33" stroke="#ffd166" stroke-opacity="0.7" stroke-width="3"/>
    <text x="176" y="150" fill="#eef4ff" font-size="23" font-weight="800">CLI run</text>
    <rect x="494" y="100" width="180" height="82" rx="22" fill="#111a33" stroke="#9bffb1" stroke-opacity="0.7" stroke-width="3"/>
    <text x="584" y="150" fill="#eef4ff" font-size="23" font-weight="800">TUI</text>
    <rect x="552" y="340" width="180" height="82" rx="22" fill="#111a33" stroke="#59d6ff" stroke-opacity="0.7" stroke-width="3"/>
    <text x="642" y="390" fill="#eef4ff" font-size="23" font-weight="800">Web</text>
    <rect x="494" y="584" width="180" height="82" rx="22" fill="#111a33" stroke="#ff8fab" stroke-opacity="0.7" stroke-width="3"/>
    <text x="584" y="634" fill="#eef4ff" font-size="23" font-weight="800">IDE</text>
    <rect x="86" y="584" width="180" height="82" rx="22" fill="#111a33" stroke="#ffd166" stroke-opacity="0.7" stroke-width="3"/>
    <text x="176" y="634" fill="#eef4ff" font-size="23" font-weight="800">Plan/Build</text>
    <rect x="28" y="340" width="180" height="82" rx="22" fill="#111a33" stroke="#9bffb1" stroke-opacity="0.7" stroke-width="3"/>
    <text x="118" y="390" fill="#eef4ff" font-size="23" font-weight="800">Attach</text>
  </g>
  <g fill="none" stroke="#59d6ff" stroke-width="5" stroke-linecap="round" stroke-opacity="0.45">
    <path d="M230 182 L314 300"/>
    <path d="M530 182 L446 300"/>
    <path d="M552 382 H498"/>
    <path d="M530 584 L446 460"/>
    <path d="M230 584 L314 460"/>
    <path d="M208 382 H262"/>
  </g>
</svg>
