<svg xmlns="http://www.w3.org/2000/svg" width="700" height="520" viewBox="0 0 700 520" role="img" aria-label="Ciclo de sesion OpenCode">
  <rect width="700" height="520" rx="32" fill="#0b1020"/>
  <circle cx="350" cy="260" r="164" fill="#111a33" stroke="#59d6ff" stroke-opacity=".28" stroke-width="3"/>
  <g font-family="Inter,Arial" font-size="22" font-weight="700" text-anchor="middle">
    <circle cx="350" cy="92" r="62" fill="#17213f" stroke="#59d6ff"/>
    <text x="350" y="86" fill="#eef4ff">Contexto</text>
    <text x="350" y="112" fill="#aab7d4" font-size="15">objetivo + reglas</text>
    <circle cx="518" cy="260" r="62" fill="#17213f" stroke="#9bffb1"/>
    <text x="518" y="254" fill="#eef4ff">Fase</text>
    <text x="518" y="280" fill="#aab7d4" font-size="15">cambio acotado</text>
    <circle cx="350" cy="428" r="62" fill="#17213f" stroke="#ffd166"/>
    <text x="350" y="422" fill="#eef4ff">Resumen</text>
    <text x="350" y="448" fill="#aab7d4" font-size="15">estado + pendientes</text>
    <circle cx="182" cy="260" r="62" fill="#17213f" stroke="#ff8fab"/>
    <text x="182" y="254" fill="#eef4ff">Retomar</text>
    <text x="182" y="280" fill="#aab7d4" font-size="15">continuidad</text>
  </g>
  <g fill="none" stroke="#59d6ff" stroke-width="6" stroke-linecap="round" stroke-opacity=".72">
    <path d="M408 117 C472 145 510 188 518 228"/>
    <path d="M500 322 C472 378 426 413 386 424"/>
    <path d="M290 424 C230 398 190 352 182 292"/>
    <path d="M198 216 C224 158 272 108 314 98"/>
  </g>
  <g fill="#59d6ff">
    <path d="M519 230 l-13 -18 l24 2 z"/>
    <path d="M388 424 l20 -10 l-8 23 z"/>
    <path d="M182 292 l11 19 l-24 -4 z"/>
    <path d="M314 98 l-20 9 l9 -22 z"/>
  </g>
</svg>
